<svg width="42.461px" height="45.382px" version="1.1" viewBox="0 0 46.749 48.352" xmlns="http://www.w3.org/2000/svg">
 <path d="m24.968-0.09257q1.8993 1.8993 1.8993 8.4048l1e-5 10.479 19.407 13.164 0.15247 0.10948q0.30562 0.30562 0.30566 0.69857l-7e-6 2.7943q2.4e-5 0.39294-0.30562 0.69858-0.45843 0.45843-1.026 0.24015l-18.534-6.571 6e-6 10.697q6.6802 3.7112 6.9858 4.0168 0.30562 0.30562 0.30566 0.69857l-7e-6 2.7943q2.4e-5 0.39294-0.30562 0.69858-0.39297 0.39297-0.96056 0.26199l-9.4963-2.7288-9.4963 2.7288q-0.56761 0.17465-0.98238-0.24012-0.30562-0.30562-0.30566-0.69857l-0.02197-2.8161q-2.3e-5 -0.39294 0.30566-0.69861 0.30562-0.30562 6.9858-4.0168l-7e-6 -10.697-18.534 6.571q-0.56759 0.21832-1.026-0.24015-0.30562-0.30562-0.30566-0.69857l-1.7e-5 -2.7943q-2.3e-5 -0.39294 0.30562-0.69861 0.08724-0.08724 0.15271-0.10921l19.407-13.164-6e-6 -10.479q0-6.5055 1.8993-8.4048 0.69858-0.69858 1.5936-0.69856 0.89506-6.7e-6 1.5936 0.69857z" opacity="1" stroke="#000" stroke-width=".030873"/>
</svg>
