<svg version="1.1" viewBox="0 0 1001.7 763.76" xmlns="http://www.w3.org/2000/svg">
 <g fill="none" stroke="#000" stroke-width="1.876">
  <path d="m369.92 0.93778a369.37 380.94 0 0 0-368.99 380.94 369.37 380.94 0 0 0 369.37 380.94 369.37 380.94 0 0 0 312.13-177.24 295.5 304.75 0 0 1-219.79 101.05 295.5 304.75 0 0 1-295.5-304.75 295.5 304.75 0 0 1 295.5-304.75 295.5 304.75 0 0 1 219.78 101.05 369.37 380.94 0 0 0-312.13-177.23 369.37 380.94 0 0 0-0.38595 0z"/>
  <path d="m659.75 381.86 129.67 43.471v140.62l80.152-113.77 129.68 43.457-80.144-113.77 80.152-113.77-129.68 43.457-80.152-113.77 4e-3 140.62z"/>
 </g>
</svg>
