<svg version="1.1" viewBox="0 0 6863.1 570.5" xmlns="http://www.w3.org/2000/svg">
 <path class="runner" d="m0.093899 569.78 52.63-6.8262 41.722 3.7667 48.54-4.1779 38.998 3.3884 36.271-6.0695 44.45-1.5298 26.726-6.4478 31.375-9.4744 12.026 20.949 64.327-43.788 17.5 43.955 87.37-60.658 5.9048 58.117 90.716-79.384 8.3423 40.996 59.965-66.376 9.5696 36.348 48.266-61.026 15.045 83.755 23.49-35.559 14.958 38.005 28.366-57.917-0.5266 43.939 33.602-73.619-9.0587 79.279 39.696-108.24 22.358 134.95 43.182-80.794 5.1434 42.574 39.908-92.912 5.0699 96.656 45.65-114.5 8.5789 97.823 24.424-54.354 12.236 59.599 25.643-99.069 13.455 125.95 36.613-97.627c-23.165 96.846 46.642 4.7595 50.021 9.1134l14.674 94.217 68.632-162.39 45.07 153.68 23.801-22.638 13.458 20.455 30.265-61.141 1.3919 53.604 29.854-59.28 22.958 66.139 39.404-96.011 23.416 97.066 18.85-63.325 21.321 63.406 41.905-107.83 33.755 160.81 34.801-196.16 26.86 192.59 21.984-137.41 35.601 19.211 28.288 92.4 26.232-144.8 23.033 7.466 5.9689 140.17 46.192-136.78 7.1875 70.212 32.784-43.74 5.9687 79.588 40.097-64.656 14.501 31.266 31.565-16.334 4.7498 66.606 41.316-51.674 16.939 48.576 29.127-33.643 19.376 31.987 26.69-17.055 14.501 43.527 50.365-24.54 52.666-17.448 35.183-64.161 42.078 88.833 6.0552-84.112 36.221 81.122 15.536 8.7045 11.226-18.834 15.536 15.334 5.1933-25.974 12.95 17.374 0.8841-72.892 20.707 66.332 2.6079-32.094 10.364 17.884 8.641 20.434 0.8838-36.684 10.365-21.384 7.779 34.203 10.365-13.734 8.6409 31.144 28.464-89.211 6.0553 90.301 25.016-106.55 12.088 93.361 19.845-109.61 13.812 157.62 18.122-153.98 11.226-4.045 11.226 130.08 25.017-152.45 29.326 49.503-8.5966-68.302 25.878 42.363 0.022-54.533 21.11 17.374 31.677 165.37 6.1785-184.47 31.678 179.65 7.1984-210.99 24.538 48.078 17.398 152.11 19.438-218.13 16.387 3.8336-2.9925 213.94 35.766-241.98 13.327 44.632 13.327 33.412 16.387-73.683 20.466 204.76 18.427-154.26 13.327 135.41 19.447-127.74 19.447-44.104 13.327 51.772 39.846 118.07 4.2147-76.989 12.239 14.279 9.2471-40.025c-6.0515-79.139-6.5885-139.97 32.228-207.67 0 0 15.363-22.514 24.217-32.928 9.6779-11.381 20.236-22.121 31.454-32.13 6.6469-5.9299 13.882-11.246 21.155-16.464 8.4763-6.0787 17.172-11.902 26.166-17.26 8.8447-5.2685 17.879-10.299 27.28-14.604 13.171-6.0342 26.754-11.331 40.64-15.666 12.192-3.8058 24.689-6.7935 37.301-9.0286 12.311-2.1815 24.794-3.6526 37.301-4.2486 14.644-0.69807 29.364-0.31023 43.981 0.79662 10.648 0.80623 21.275 2.1785 31.733 4.2486 16.024 3.1717 31.917 7.2105 47.322 12.48 13.098 4.4807 25.89 9.8957 38.135 16.197 13.003 6.6916 25.305 14.609 37.301 22.836 8.7891 6.0278 17.292 12.469 25.331 19.384 7.9422 6.8323 15.439 14.152 22.548 21.775 8.6871 9.3165 16.941 19.035 24.496 29.209 3.6729 4.9462 8.0503 11.874 8.0503 11.874s-9.0639-7.8708-15.009-13.202c-6.2334-5.589-12.708-10.953-19.485-15.932-7.7696-5.707-15.814-11.113-24.217-15.932-7.0782-4.0588-14.472-7.6278-21.99-10.887-10.165-4.4065-20.517-8.5152-31.176-11.684-11.281-3.3529-22.839-5.9732-34.517-7.7006-11.773-1.7415-23.718-2.5906-35.63-2.6554-11.159-0.0606-22.333 0.77993-33.403 2.1243-8.4304 1.0238-16.816 2.5163-25.053 4.5142-10.864 2.6349-21.571 5.9332-32.012 9.8249-9.048 3.3728-17.894 7.2868-26.444 11.684-9.6103 4.9414-18.946 10.419-27.836 16.464-6.8211 4.6373-13.176 9.8796-19.485 15.136-4.4993 3.7487-8.9029 7.6125-13.083 11.684-4.2758 4.1644-8.3408 8.5298-12.248 13.011-3.8919 4.4649-7.6191 9.0672-11.134 13.808-6.0045 8.0978-11.904 16.304-16.98 24.961-3.161 5.3902-5.7183 11.086-8.3509 16.729-3.3491 7.1784-6.6267 14.397-9.4644 21.775-1.7794 4.625-3.4071 9.3117-4.7322 14.074-3.3341 11.98-6.3435 24.094-8.0725 36.379-1.6944 12.038-2.389 24.233-2.227 36.379 0.1553 11.635 1.2742 23.275 3.0621 34.785 1.4324 9.2216 3.509 18.367 6.124 27.35 3.2819 11.274 7.1243 22.443 11.97 33.193 5.7054 12.657 12.445 24.928 20.042 36.644 5.9067 9.1098 12.497 17.857 19.764 26.022 8.9585 10.068 18.679 19.596 29.228 28.147 10.849 8.796 22.543 16.714 34.795 23.633 10.123 5.717 20.88 10.418 31.774 14.654 9.1642 3.564 18.656 6.3345 28.147 9.0126 7.0803 1.9982 14.179 4.0542 21.455 5.2573 14.088 2.3299 28.415 3.6454 42.712 3.7552 10.396 0.081 20.794-0.9451 31.1-2.2531 11.786-1.4959 23.568-3.3898 35.035-6.384 11.77-3.073 23.319-7.0475 34.445-11.829 11.458-4.9242 22.508-10.777 33.067-17.275 8.8987-5.4757 17.432-11.551 25.391-18.213l20.049-40.128 94.601-7.0879 3.6179-122.51-109.62-32.176 109.62-40.22v-112.62l67.459 96.527 109.62-40.22-67.459 96.527 74.479 92.744-117.18-34.3 97.934 93.503 17.625 36.88 18.406 54.036 20.446-75.498 16.366 74.436 15.346-103.04 12.287 44.857 10.247-23.48 14.326 75.456 9.2267-41.839 15.346 27.518 17.386-64.279 12.287 33.637 17.386-44.899 21.466 67.296 11.267-41.839 24.526 55.056 23.592-35.319 15.433 58.517 28.692-56.738 13.393 27.919 11.353-47.558 14.413 65.657 18.493-74.077 16.453 88.096 25.108-64.685 21.028 58.73 27.147-65.705 35.307 37.311 37.193-86.367 24.953 56.427 39.232-86.367 41.272 42.148 75.951 36.028 43.312-43.529 39.19 43.957 24.91-33.56 19.509-12.138 5.8743 34.773 18.145-11.003 16.782 31.746 32.831 23.904 17.526-18.042 33.124 28.654 31.196 20.628 31.313-118.47 30.966-66.853 15.993 74.88 22.402-51.325 13.934-51.012 10.077 125.24 28.124-143.95 31.285 148.48 24.672-164.41 17.322 61.529 27.427-51.499 18.369 163.13 43.109-204.09 56.455 215.65 9.5092-185.38 48.74 184.55 28.177-121.42 69.043 88.123 29.104-77.063 84.303 98.859 50.104-74.418 7.7056 24.136 24.067 16.569 45.881-13.697 22.526 53.33 42.09-10.433 6.6661 7.1738 15.528-3.2299 12.802 17.578 12.12-2.8515 7.3477 13.227 10.074 8.3088 22.346-4.9324 16.891 17.199 46.076-0.7921 23.669 3.6084 20.942-6.9846 26.396 14.202 29.122-3.2013 18.215 10.418 26.396-2.4448 20.942 9.6614 14.561-1.979 61.562 1.29 60.2 4.6949 64.29-2.8715 60.2 6.2081 61.562-2.8715 69.745 5.8299 53.383-3.2499 61.562 1.2901 31.664-2.9209 48.025 5.4022 31.664-2.5426 33.028 6.1588 45.155-0.37885 27.574 3.1322" fill="none" stroke="#000" stroke-width="1.46px"/>
 <path class="placeholder" d="m0.093899 569.78 52.63-6.8262 41.722 3.7667 48.54-4.1779 38.998 3.3884 36.271-6.0695 44.45-1.5298 26.726-6.4478 31.375-9.4744 12.026 20.949 64.327-43.788 17.5 43.955 87.37-60.658 5.9048 58.117 90.716-79.384 8.3423 40.996 59.965-66.376 9.5696 36.348 48.266-61.026 15.045 83.755 23.49-35.559 14.958 38.005 28.366-57.917-0.5266 43.939 33.602-73.619-9.0587 79.279 39.696-108.24 22.358 134.95 43.182-80.794 5.1434 42.574 39.908-92.912 5.0699 96.656 45.65-114.5 8.5789 97.823 24.424-54.354 12.236 59.599 25.643-99.069 13.455 125.95 36.613-97.627c-23.165 96.846 46.642 4.7595 50.021 9.1134l14.674 94.217 68.632-162.39 45.07 153.68 23.801-22.638 13.458 20.455 30.265-61.141 1.3919 53.604 29.854-59.28 22.958 66.139 39.404-96.011 23.416 97.066 18.85-63.325 21.321 63.406 41.905-107.83 33.755 160.81 34.801-196.16 26.86 192.59 21.984-137.41 35.601 19.211 28.288 92.4 26.232-144.8 23.033 7.466 5.9689 140.17 46.192-136.78 7.1875 70.212 32.784-43.74 5.9687 79.588 40.097-64.656 14.501 31.266 31.565-16.334 4.7498 66.606 41.316-51.674 16.939 48.576 29.127-33.643 19.376 31.987 26.69-17.055 14.501 43.527 50.365-24.54 52.666-17.448 35.183-64.161 42.078 88.833 6.0552-84.112 36.221 81.122 15.536 8.7045 11.226-18.834 15.536 15.334 5.1933-25.974 12.95 17.374 0.8841-72.892 20.707 66.332 2.6079-32.094 10.364 17.884 8.641 20.434 0.8838-36.684 10.365-21.384 7.779 34.203 10.365-13.734 8.6409 31.144 28.464-89.211 6.0553 90.301 25.016-106.55 12.088 93.361 19.845-109.61 13.812 157.62 18.122-153.98 11.226-4.045 11.226 130.08 25.017-152.45 29.326 49.503-8.5966-68.302 25.878 42.363 0.022-54.533 21.11 17.374 31.677 165.37 6.1785-184.47 31.678 179.65 7.1984-210.99 24.538 48.078 17.398 152.11 19.438-218.13 16.387 3.8336-2.9925 213.94 35.766-241.98 13.327 44.632 13.327 33.412 16.387-73.683 20.466 204.76 18.427-154.26 13.327 135.41 19.447-127.74 19.447-44.104 13.327 51.772 39.846 118.07 4.2147-76.989 12.239 14.279 9.2471-40.025c-6.0515-79.139-6.5885-139.97 32.228-207.67 0 0 15.363-22.514 24.217-32.928 9.6779-11.381 20.236-22.121 31.454-32.13 6.6469-5.9299 13.882-11.246 21.155-16.464 8.4763-6.0787 17.172-11.902 26.166-17.26 8.8447-5.2685 17.879-10.299 27.28-14.604 13.171-6.0342 26.754-11.331 40.64-15.666 12.192-3.8058 24.689-6.7935 37.301-9.0286 12.311-2.1815 24.794-3.6526 37.301-4.2486 14.644-0.69807 29.364-0.31023 43.981 0.79662 10.648 0.80623 21.275 2.1785 31.733 4.2486 16.024 3.1717 31.917 7.2105 47.322 12.48 13.098 4.4807 25.89 9.8957 38.135 16.197 13.003 6.6916 25.305 14.609 37.301 22.836 8.7891 6.0278 17.292 12.469 25.331 19.384 7.9422 6.8323 15.439 14.152 22.548 21.775 8.6871 9.3165 16.941 19.035 24.496 29.209 3.6729 4.9462 8.0503 11.874 8.0503 11.874s-9.0639-7.8708-15.009-13.202c-6.2334-5.589-12.708-10.953-19.485-15.932-7.7696-5.707-15.814-11.113-24.217-15.932-7.0782-4.0588-14.472-7.6278-21.99-10.887-10.165-4.4065-20.517-8.5152-31.176-11.684-11.281-3.3529-22.839-5.9732-34.517-7.7006-11.773-1.7415-23.718-2.5906-35.63-2.6554-11.159-0.0606-22.333 0.77993-33.403 2.1243-8.4304 1.0238-16.816 2.5163-25.053 4.5142-10.864 2.6349-21.571 5.9332-32.012 9.8249-9.048 3.3728-17.894 7.2868-26.444 11.684-9.6103 4.9414-18.946 10.419-27.836 16.464-6.8211 4.6373-13.176 9.8796-19.485 15.136-4.4993 3.7487-8.9029 7.6125-13.083 11.684-4.2758 4.1644-8.3408 8.5298-12.248 13.011-3.8919 4.4649-7.6191 9.0672-11.134 13.808-6.0045 8.0978-11.904 16.304-16.98 24.961-3.161 5.3902-5.7183 11.086-8.3509 16.729-3.3491 7.1784-6.6267 14.397-9.4644 21.775-1.7794 4.625-3.4071 9.3117-4.7322 14.074-3.3341 11.98-6.3435 24.094-8.0725 36.379-1.6944 12.038-2.389 24.233-2.227 36.379 0.1553 11.635 1.2742 23.275 3.0621 34.785 1.4324 9.2216 3.509 18.367 6.124 27.35 3.2819 11.274 7.1243 22.443 11.97 33.193 5.7054 12.657 12.445 24.928 20.042 36.644 5.9067 9.1098 12.497 17.857 19.764 26.022 8.9585 10.068 18.679 19.596 29.228 28.147 10.849 8.796 22.543 16.714 34.795 23.633 10.123 5.717 20.88 10.418 31.774 14.654 9.1642 3.564 18.656 6.3345 28.147 9.0126 7.0803 1.9982 14.179 4.0542 21.455 5.2573 14.088 2.3299 28.415 3.6454 42.712 3.7552 10.396 0.081 20.794-0.9451 31.1-2.2531 11.786-1.4959 23.568-3.3898 35.035-6.384 11.77-3.073 23.319-7.0475 34.445-11.829 11.458-4.9242 22.508-10.777 33.067-17.275 8.8987-5.4757 17.432-11.551 25.391-18.213l20.049-40.128 94.601-7.0879 3.6179-122.51-109.62-32.176 109.62-40.22v-112.62l67.459 96.527 109.62-40.22-67.459 96.527 74.479 92.744-117.18-34.3 97.934 93.503 17.625 36.88 18.406 54.036 20.446-75.498 16.366 74.436 15.346-103.04 12.287 44.857 10.247-23.48 14.326 75.456 9.2267-41.839 15.346 27.518 17.386-64.279 12.287 33.637 17.386-44.899 21.466 67.296 11.267-41.839 24.526 55.056 23.592-35.319 15.433 58.517 28.692-56.738 13.393 27.919 11.353-47.558 14.413 65.657 18.493-74.077 16.453 88.096 25.108-64.685 21.028 58.73 27.147-65.705 35.307 37.311 37.193-86.367 24.953 56.427 39.232-86.367 41.272 42.148 75.951 36.028 43.312-43.529 39.19 43.957 24.91-33.56 19.509-12.138 5.8743 34.773 18.145-11.003 16.782 31.746 32.831 23.904 17.526-18.042 33.124 28.654 31.196 20.628 31.313-118.47 30.966-66.853 15.993 74.88 22.402-51.325 13.934-51.012 10.077 125.24 28.124-143.95 31.285 148.48 24.672-164.41 17.322 61.529 27.427-51.499 18.369 163.13 43.109-204.09 56.455 215.65 9.5092-185.38 48.74 184.55 28.177-121.42 69.043 88.123 29.104-77.063 84.303 98.859 50.104-74.418 7.7056 24.136 24.067 16.569 45.881-13.697 22.526 53.33 42.09-10.433 6.6661 7.1738 15.528-3.2299 12.802 17.578 12.12-2.8515 7.3477 13.227 10.074 8.3088 22.346-4.9324 16.891 17.199 46.076-0.7921 23.669 3.6084 20.942-6.9846 26.396 14.202 29.122-3.2013 18.215 10.418 26.396-2.4448 20.942 9.6614 14.561-1.979 61.562 1.29 60.2 4.6949 64.29-2.8715 60.2 6.2081 61.562-2.8715 69.745 5.8299 53.383-3.2499 61.562 1.2901 31.664-2.9209 48.025 5.4022 31.664-2.5426 33.028 6.1588 45.155-0.37885 27.574 3.1322" fill="none" stroke="#000" stroke-width="1.46px"/>
</svg>
