<svg version="1.1" viewBox="0 0 1750 399.64" xmlns="http://www.w3.org/2000/svg">
 <path class="runner" d="m0 250.57h160l30-60 30 90 40-170 30 230 40-150 20 60h205l11.948-9.9255c-0.696-9.4363-1.2398-14.02-1.68-18.678 0-3.7493 0.095-7.4769 0.2819-11.181 0.26-5.1437 0.6983-10.241 1.3091-15.287 13.281-109.72 108.09-194.82 223.15-194.94l-0.01 0.0058h0.235c77.121-2e-3 148.87 38.873 190.11 103.01-34.134-37.379-82.796-58.729-133.86-58.73-99.401 2.7e-5 -179.98 79.3-179.98 177.12s80.58 177.12 179.98 177.12c51.069 1.6e-4 99.733-21.35 136.19-61.124l107.32-77.394-74.737-26.99 78.983-25.256v-81.728l48.818 66.123 78.985-25.257-48.818 66.123 48.814 66.123 22.955-49.138h205l30-60 30 90 40-170 30 230 40-150 20 60h110" fill="none" stroke="#000" stroke-width="1.1162"/>
 <path class="placeholder" d="m0 250.57h160l30-60 30 90 40-170 30 230 40-150 20 60h205l11.948-9.9255c-0.696-9.4363-1.2398-14.02-1.68-18.678 0-3.7493 0.095-7.4769 0.2819-11.181 0.26-5.1437 0.6983-10.241 1.3091-15.287 13.281-109.72 108.09-194.82 223.15-194.94l-0.01 0.0058h0.235c77.121-2e-3 148.87 38.873 190.11 103.01-34.134-37.379-82.796-58.729-133.86-58.73-99.401 2.7e-5 -179.98 79.3-179.98 177.12s80.58 177.12 179.98 177.12c51.069 1.6e-4 99.733-21.35 136.19-61.124l107.32-77.394-74.737-26.99 78.983-25.256v-81.728l48.818 66.123 78.985-25.257-48.818 66.123 48.814 66.123 22.955-49.138h205l30-60 30 90 40-170 30 230 40-150 20 60h110" fill="none" stroke="#000" stroke-width="1.1162"/>
</svg>
